<?xml version="1.0" encoding="UTF-8"?>
<svg width="54.677" height="63.378" enable-background="new 0 0 90 90" version="1.1" viewBox="0 0 54.677 63.378" xml:space="preserve" xmlns="http://www.w3.org/2000/svg"><g clip-rule="evenodd" fill-rule="evenodd"><path d="m17.749 0-13.847 15.953v8.145h3.4v-5.812h12.922v-14.885h27.151v20.697h3.401v-24.098z"/><path d="m7.296 48.948h40.079v11.027l-40.079-0.039zm28.319-17.828h9.615v2.36h-6.787v3.072h5.938v2.376h-5.938v5.692h-2.828zm-13.819 0h5.224c3.589 0 6.193 2.812 6.256 6.609 0.063 3.484-1.958 6.891-5.828 6.891h-5.652zm-12.348 0h5.959c2.406 0 4.328 1.833 4.328 4.375 0 2.428-1.792 4.225-4.328 4.225h-3.131v4.901h-2.828zm-9.448-4.329v22.156h3.901v14.385l46.875 0.046v-14.43h3.901v-22.157z"/><path d="m12.276 33.458v3.97h2.683c1.495 0 2.249-0.761 2.296-2.016 0.046-1.396-1.167-1.954-2.296-1.954z"/><path d="m24.542 42.322h2.338c2.386 0 3.521-2.058 3.517-4.593-0.011-2.49-1.021-4.271-3.762-4.271h-2.093z"/></g></svg>
