<?xml version="1.0" encoding="UTF-8" standalone="no"?><!DOCTYPE svg PUBLIC "-//W3C//DTD SVG 1.1//EN" "http://www.w3.org/Graphics/SVG/1.1/DTD/svg11.dtd"><svg width="100%" height="100%" viewBox="0 0 983 982" version="1.1" xmlns="http://www.w3.org/2000/svg" xmlns:xlink="http://www.w3.org/1999/xlink" xml:space="preserve" xmlns:serif="http://www.serif.com/" style="fill-rule:evenodd;clip-rule:evenodd;stroke-linejoin:round;stroke-miterlimit:2;"><g opacity="0.07"><g><path d="M82.505,756.941c1.284,1.417 3.004,3.542 4.292,5.029c-2.604,-7.812 -2.108,-16.545 -6.333,-24.045c-0.967,-1.821 -3.096,-3.734 -4.388,-5.363c-8.783,-10.804 -18.171,-23.854 -27.612,-38.654c-0.117,-0.258 -0.25,-0.421 -0.334,-0.542c-0.087,-0.258 -0.208,-0.446 -0.346,-0.571c-0.12,-0.183 -0.254,-0.42 -0.287,-0.537c-15.125,-24.425 -22.317,-42.175 -26.196,-51.75c2.808,11.725 8.654,36.15 31.983,74.783c0.055,0.238 0.175,0.417 0.296,0.592c0.054,0.117 0.184,0.329 0.271,0.471c0.096,0.162 0.213,0.279 0.338,0.471c0.058,0.187 0.183,0.379 0.245,0.495c0.155,0.188 0.23,0.375 0.342,0.542c0.092,0.188 0.208,0.379 0.342,0.496c0.037,0.187 0.137,0.354 0.254,0.542c0.092,0.116 0.254,0.308 0.312,0.47c4.567,7.15 13.071,20.484 26.821,37.571m142.109,120.121c1.1,0.567 2.458,1.417 3.487,2.029c-0.067,-6.158 0.104,-10.146 0.713,-17.2c-41.034,-24.808 -71.217,-47.225 -104.142,-77.362c0.042,0.85 0.142,1.821 0.204,2.671c1.404,16.562 1.404,16.562 8.083,22.583c27.309,24.587 58.096,47.196 91.655,67.279m179.312,74.1c1.229,0.308 2.771,0.733 3.929,0.971c3.325,-4.088 5.475,-7.058 8.967,-12.117c-45.929,-11.908 -82.621,-25.15 -126.525,-45.446c-0.208,0.546 -0.554,1.325 -0.767,1.963c-2.25,5.683 -3.4,8.608 -4.833,12.342c14.65,6.675 59.15,27.233 119.229,42.287m189.688,15.242c1.112,-0.113 3.737,-0.396 17.279,-9.813c-52.396,5.309 -95.342,1.038 -126.813,-3.187c-0.541,0.425 -1.204,0.971 -1.733,1.441c-4.508,3.917 -7.258,6.017 -11.733,9.205c18.033,2.354 66.02,8.516 123,2.354m107.533,-28.692c10.787,-5.287 25.046,-12.65 35.487,-18.621l-3.062,1.7c-7.179,3.871 -28.929,15.554 -57.867,23.575c-2.633,0.709 -6.325,1.7 -8.708,3.113c-5.879,3.329 -9.688,5.362 -15.742,8.262c26.813,-7.266 43.8,-15.033 49.892,-18.029" style="fill:#fff;fill-rule:nonzero;"/><path d="M110.553,564.16c0.279,-0.658 0.65,-1.508 0.975,-2.192c-7.592,-9.366 -20.234,-25.062 -34.617,-48.071c-0.125,-0.212 -0.275,-0.404 -0.392,-0.616c-0.112,-0.163 -0.208,-0.329 -0.333,-0.542c-0.108,-0.167 -0.242,-0.425 -0.387,-0.662c-14.809,-23.975 -22.892,-42.171 -28.267,-55.313c-3.213,6.938 -5.408,11.867 -8.3,18.879c-0.238,0.709 -0.571,1.367 -0.833,2.054c-3.38,8.425 -4.813,12.58 -4.813,12.58c0.092,0.162 9.113,24.258 28.254,55.5c0.134,0.05 0.242,0.308 0.363,0.495c0.1,0.238 0.25,0.446 0.362,0.613c0.104,0.237 0.238,0.404 0.346,0.617c0.096,0.187 0.238,0.4 0.375,0.566c11.621,18.242 19.971,29.734 34.271,47.429c1.829,-4.879 2.867,-7.475 4.8,-12.433c0.312,-0.708 0.592,-1.417 0.892,-2.15c1.404,-3.325 3.645,-8.917 7.304,-16.754m166.25,140.579c0.271,-0.608 0.608,-1.508 0.879,-2.05c-42.438,-25.937 -78.125,-52.604 -112.308,-83.708c-0.242,0.566 -0.621,1.441 -0.892,2.079c-4.954,11.279 -8.771,20.317 -12.913,31.175c35.817,32.308 68.396,56.237 112.592,82.854c2.063,-5.042 3.079,-7.625 4.858,-11.917c0.275,-0.708 0.55,-1.391 0.805,-2.029c1.433,-3.446 3.591,-8.591 6.979,-16.404m-247.154,-305.654c0.658,-1.392 0.75,-3.608 0.525,-5.146c-4.571,-32.162 -2.73,-60.529 5.741,-89.296c-10.708,22.35 -28.587,59.704 -19.121,125.738c1.784,-5.075 2.721,-7.671 4.767,-12.604c0.179,-0.734 0.554,-1.417 0.808,-2.055c1.246,-3.137 3.671,-8.92 7.28,-16.637m458.95,395.146c0.237,-0.567 0.554,-1.392 0.791,-1.938c-47.658,-12.671 -91.079,-28.366 -136.65,-49.575c-0.254,0.654 -0.596,1.479 -0.833,2.092c-2.217,5.362 -4.463,10.717 -6.671,16c-0.25,0.758 -0.546,1.371 -0.833,2.008c-1.575,3.892 -3.217,7.788 -4.825,11.638c47.712,21.333 87.5,35.325 137.35,47.854c4.891,-11.558 9.041,-21.683 11.671,-28.079m220.391,20.671c0.142,-0.45 0.417,-1.159 0.604,-1.696c-57.041,5.141 -103.495,0.421 -137.633,-4.225c-0.221,0.541 -0.496,1.341 -0.696,1.887c-3.929,9.863 -7.196,17.65 -11.266,26.875c20.291,2.409 74.079,8.804 138.725,1.609c1.629,-3.609 2.608,-5.809 4.166,-9.559c0.275,-0.566 0.484,-1.087 0.709,-1.604c1.037,-2.433 2.887,-6.917 5.391,-13.287m169.184,-56c0.141,-0.334 0.341,-0.805 0.483,-1.25c-27.858,19.279 -58.621,33.012 -96.721,43.212c-0.225,0.471 -0.262,1.129 -0.629,1.508c-3.113,8.305 -5.908,14.888 -9.471,22.725c23.233,-6.891 51.171,-16.637 82.442,-36.179c16.296,-10.054 16.296,-10.054 23.896,-30.016m66.937,-77.5l4.779,-11.942l-1.216,3.162c-2.75,6.492 -11.009,26.08 -27.421,45.88c-0.85,0.987 -2.079,2.379 -2.609,3.704c-1.358,3.725 -2.475,6.371 -4.07,10.171c-0.13,0.304 -0.317,0.683 -0.263,1.108c-0.171,0.379 -0.342,0.708 -0.458,1.083c-0.684,1.442 -1.309,3 -1.979,4.438c18.12,-22.509 25.862,-39.504 33.437,-57.604" style="fill:#fff;fill-rule:nonzero;"/><path d="M244.568,377.612c1.096,-1.112 2.591,-2.575 3.691,-3.729c-13.012,-15.883 -20.541,-26.338 -31.133,-42.808c-0.104,-0.213 -0.162,-0.334 -0.258,-0.45c-0.154,-0.234 -0.2,-0.375 -0.321,-0.542c-0.108,-0.142 -0.221,-0.379 -0.329,-0.475c-0.084,-0.183 -0.2,-0.375 -0.317,-0.563c-0.071,-0.095 -0.154,-0.308 -0.283,-0.425c-0.096,-0.237 -0.213,-0.354 -0.309,-0.545c-0.07,-0.163 -0.216,-0.305 -0.295,-0.471c-0.088,-0.167 -0.213,-0.354 -0.355,-0.471c-10.141,-17.017 -17.012,-30.821 -23.716,-47.55c-12.217,10.146 -19.409,16.375 -30.809,27.042c4.05,10.054 10.85,26.995 25.809,51.375c0.454,0.637 0.546,0.804 0.646,0.991c0.15,0.188 0.237,0.379 0.354,0.496c0.066,0.258 0.196,0.45 0.312,0.567c10.846,17.037 18.609,27.704 32.05,44.154c4.659,-5.05 13.225,-14.396 25.263,-26.596m141.954,118.492c0.792,-1.225 1.862,-3.071 2.642,-4.342c-38.255,-23.25 -70.255,-47.108 -100.609,-75.329c-0.937,1.346 -2.246,3.021 -3.191,4.246c-8.442,11.187 -13.784,18.408 -21.88,29.758c33.013,30.063 63.338,52.296 104.571,76.767c3.392,-5.779 9.746,-16.638 18.467,-31.1m-212.273,-258.176c1.263,-0.837 2.836,-1.756 4.098,-2.556c-0.146,-0.825 -0.429,-2.447 -0.546,-3.297c-4.537,-29.05 -2.814,-55.248 5.086,-80.927c-20.267,11.779 -30.6,19.483 -30.6,19.483c-8.537,24.908 -10.611,55.263 -5.74,87.688c5.05,-3.988 14.486,-11.491 27.702,-20.391Zm392.452,333.267c0.425,-1.32 0.967,-3.116 1.392,-4.483c-42.879,-11.304 -81.842,-25.533 -122.621,-44.862c-0.625,1.437 -1.367,3.325 -1.996,4.695c-4.625,10.859 -9.296,21.759 -13.85,32.684c44.175,19.871 81.025,32.591 127.221,43.991c1.583,-5.17 5.358,-17.137 9.854,-32.025m-371.649,-451.948c1.688,-1.005 3.982,-2.309 4.998,-3.934c14.713,-22.55 33.734,-41.505 59.055,-57.243c-39.854,18.805 -67.682,42.925 -89.199,75.466c4.592,-2.829 13.259,-8.214 25.146,-14.289m559.12,468.657c0.083,-1.204 0.117,-2.884 0.212,-4.038c-51.491,4.675 -93.383,0.075 -124.154,-4.341c-0.116,1.32 -0.437,3.116 -0.612,4.458c-1.9,11.896 -3.271,19.85 -5.313,31.625c29.404,3.492 74.679,7.342 127.917,0.825c0.45,-5.358 1.312,-15.292 1.95,-28.529m145.572,-48.305c-0.176,-1.124 -0.415,-3.07 -0.532,-4.016c-25.333,17.442 -54.832,30.512 -89.807,39.175c0.059,1.108 0.188,2.667 0.271,3.754c0.675,10.05 1.004,16.142 1.308,26.121c36.984,-11.117 64.433,-24.62 91.204,-44.774c-0.413,-3.633 -1.052,-10.268 -2.444,-20.26Zm67.092,-98.811c-0.158,-0.446 -0.64,-1.815 -0.794,-2.286c-6.396,26.783 -18.569,49.55 -37.406,70.817c0.154,0.658 0.423,1.74 0.648,2.499c1.5,6.795 2.289,10.763 3.614,17.492c4.542,-5.712 18.953,-23.556 28.178,-48.619c6.103,-16.3 9.013,-22.787 8.488,-29.035c-0.269,-3.196 -1.402,-6.132 -2.728,-10.868m-5.181,-91.047l-1.975,-6.137l1.975,6.183c2.492,9.346 6.996,30.097 7.667,52.089c-0,0.404 0.22,1.016 0.329,1.441c0.896,2.834 1.508,4.813 2.358,7.742c-1.367,-27.871 -8.091,-53.839 -10.354,-61.318" style="fill:#fff;fill-rule:nonzero;"/><path d="M440.952,224.359c1.309,-0.779 3.15,-1.934 4.438,-2.713c-8.625,-10.125 -13.629,-16.779 -20.45,-27.237c-0.046,-0.196 -0.175,-0.292 -0.234,-0.471c-0.095,-0.092 -0.158,-0.233 -0.283,-0.4c-0.083,-0.142 -0.142,-0.283 -0.237,-0.446c-0.084,-0.083 -0.155,-0.167 -0.309,-0.354c-8.8,-14.254 -13.133,-25.042 -16.021,-32.854c-15.354,5.171 -25.204,8.779 -40.404,14.8c2.5,6.816 7.192,19.466 17.984,36.954c0.116,0.179 0.245,0.379 0.354,0.554c0.071,0.179 0.225,0.296 0.304,0.483c0.025,0.109 0.179,0.309 0.275,0.475c0.092,0.163 0.258,0.28 0.342,0.471c7.612,11.754 13.166,19.175 22.816,30.442c5.842,-3.8 16.759,-10.9 31.425,-19.704m83.034,66.597c0.805,-1.145 2.087,-2.601 2.937,-3.747c-25.591,-14.995 -47.704,-31.379 -67.104,-50.321c-1.238,0.946 -2.758,2.304 -4.013,3.317c-10.337,8.637 -16.954,14.395 -27.362,23.637c23.104,21.754 45.759,38.123 75.671,55.219c6.975,-9.959 13.701,-19.48 19.871,-28.105m-125.95,-145.96c1.583,-0.308 3.67,-0.708 5.216,-1.087c-0.083,-0.542 -0.2,-1.296 -0.341,-1.863c-3.8,-19.35 -3.003,-36.436 2.813,-53.261c-15.383,0.787 -24.374,1.543 -39.536,3.288c-7.221,20.238 -8.736,38.432 -4.502,61.832c6.779,-1.842 19.37,-5.159 36.35,-8.909m227.933,186.95c0.2,-1.321 0.504,-3.137 0.742,-4.462c-28.38,-7.1 -54.109,-16.613 -80.834,-29.992c-0.571,1.25 -1.416,2.95 -2.046,4.271c-5.179,10.712 -8.929,18.667 -14.408,30.304c31.408,14.533 57.654,23.383 90.575,30.796c1.167,-5.429 3.433,-16.921 5.971,-30.917m-219.397,-255.131c1.441,0.05 2.962,0.2 4.391,0.25c0.246,-0.496 1.127,-1.756 1.377,-2.16c8.908,-15.396 21.384,-27.565 38.505,-37.736c-19.529,-3.658 -30.601,-4.582 -30.693,-4.582c-6.446,3.283 -29.429,16.983 -46.279,44.067c6.117,-0.155 17.382,-0.427 32.699,0.161Zm326.776,263.124c-0.263,-1.25 -0.849,-2.815 -1.137,-3.974c-34.241,3.446 -62.609,-0.102 -82.938,-3.64c-0.037,1.296 -0.062,3.113 -0.079,4.388c-0.108,11.754 -0.263,19.4 -0.546,31.175c20.863,2.762 53.635,5.489 90.848,-0.27c-1.088,-5.262 -3.106,-14.983 -6.148,-27.679Zm-271.108,-310.897c1.862,0.529 4.6,0.4 6.346,-0.308c14.12,-5.546 34.833,-12.082 68.424,-13.486c-0.077,-0.038 -0.317,-0.171 -0.419,-0.204c-0.06,-0.019 0.045,0.022 -0,0c-15.094,-7.42 -15.301,-7.349 -31.922,-5.91c-31.363,2.608 -51.313,9.1 -65.192,14.383c4.259,0.875 12.175,2.575 22.763,5.525m352.795,281.933c-0.521,-0.825 -1.482,-2.472 -1.978,-3.251c-16.816,11.775 -36.821,20.306 -60.963,25.26c0.404,1.087 1.017,2.504 1.442,3.587c3.825,9.771 6.158,16.096 9.675,25.938c26.433,-7.6 45.454,-17.639 63.146,-32.647c-2.1,-3.729 -5.838,-10.157 -11.322,-18.887m-257.379,-296.462c0.966,0.754 2.884,0.887 4.088,0.887c27.2,1.571 53.062,6.209 81.429,14.821c-2.775,-5.166 -3.079,-5.712 -37.075,-13.429c-26.521,-6.029 -50.558,-7.622 -58.299,-8.151c1.77,1.025 5.477,2.956 9.857,5.872Zm294.876,238.876c-0.297,-0.288 -0.888,-0.87 -1.364,-1.294c-4.38,18.1 -12.903,32.955 -26.945,46.643c0.525,0.683 1.287,1.6 1.771,2.284c4.696,6.054 7.686,10.138 12.182,16.296c13.221,-16.542 20.654,-34.06 23.25,-55.11c-1.667,-1.675 -4.738,-4.789 -8.91,-8.822m-186.155,-215.731c-0.063,0.037 -0.146,0.225 -0.188,0.354c1.083,0.425 2.467,0.921 3.513,1.321c7.858,3.07 28.733,11.279 53.633,25.441c7.408,4.234 14.192,9.521 21.85,13.438c1.308,0.683 2.608,-0.142 3.942,-0.142c-26.055,-17.521 -51.284,-30.712 -81.9,-42.771c-0.309,0.704 -0.617,1.579 -0.85,2.359m174.558,139.329l-5.429,-9.029l4.312,8.391l2.121,4.638l1.571,3.754c1.746,4.787 4.15,11.292 5.617,16.258c1.808,6.775 5.082,20.304 4.045,37.129c0.35,0.238 0.731,0.592 1.064,0.829c2.854,2.371 4.881,4.054 7.718,6.387c-1.354,-24.708 -9.465,-45.028 -16.332,-59.378l-2.029,-4.013l-2.658,-4.966m-75.008,-84.263c-0.213,-0.104 -0.471,-0.187 -0.659,-0.187c0.259,0.187 0.634,0.425 0.884,0.683c27.02,20.863 49.275,44.179 66.162,69.371c-8.142,-13.817 -18.646,-27.529 -31.362,-40.921c-17.03,-17.971 -28.838,-27.717 -35.025,-28.946" style="fill:#fff;fill-rule:nonzero;"/><path d="M977.667,564.042l-6.433,34.833c42.479,-194.433 -101.521,-398.988 -327.825,-465.821c96.2,28.071 321.8,117.288 339.012,337.821c0.246,39.033 0.354,60.508 -4.754,93.167" style="fill:#fff;fill-rule:nonzero;"/><path d="M914.113,733.484c-0.175,0.379 -0.342,0.708 -0.458,1.087c-14.938,33.867 -31.163,56.025 -45.004,73.346c-7.884,8.733 -18.138,20.792 -26.359,29.288c-35.587,33.629 -36.958,34.945 -60.641,52.504c213.383,-164.979 138.175,-574.634 -138.738,-755.638c235.908,153.263 350.588,403.942 272.592,595.971c-1.063,2.642 -1.25,3.017 -1.392,3.442" style="fill:#fff;fill-rule:nonzero;"/><path d="M775.14,817.732c-34.641,79.934 -89.796,132.159 -159.541,151.084l-15.421,3.75c-15.471,3.025 -36.146,6.75 -51.717,8.991c23.667,-3.679 95.504,-14.725 154.429,-151.762c0.275,-0.567 0.484,-1.088 0.709,-1.604c77.983,-188.534 76.475,-507.313 -61.888,-693.509c157.004,209.867 213.133,497.23 133.429,683.05" style="fill:#fff;fill-rule:nonzero;"/><path d="M564.589,827.246c-43.791,103.479 -97.57,158.983 -147.495,152.45l-3.809,-0.617c-11.058,-2.004 -25.75,-4.837 -36.716,-7.221c74.025,3.734 284.304,-608.5 263.445,-837.246c25.575,256.096 -3.275,521.517 -75.425,692.634" style="fill:#fff;fill-rule:nonzero;"/><path d="M344.403,762.817c-64.184,154.717 -69.046,168.1 -67.788,173.646c-10.062,-5.167 -23.441,-12.108 -33.329,-17.654c-33.646,-27.542 -4.537,-121.629 25.733,-195.638c0.275,-0.708 0.55,-1.391 0.805,-2.029c82.495,-198.092 208.708,-369.725 368.487,-587.121c-73.642,102.159 -159.033,303.959 -292.262,624.884c-1.063,2.662 -1.359,3.279 -1.646,3.912" style="fill:#fff;fill-rule:nonzero;"/><path d="M155.621,641.992c-27.787,69.008 -51.083,161.183 -4.454,207.979c-11.388,-11.304 -26.229,-26.991 -36.938,-39.058c-56.816,-70.275 -37.825,-162.667 -11.87,-227.85c0.312,-0.708 0.587,-1.413 0.891,-2.146c76.954,-184.779 296.404,-368.971 533.646,-448.004c-197.537,67.162 -403.671,316.558 -481.275,509.079" style="fill:#fff;fill-rule:nonzero;"/><path d="M38.399,477.693c-34.046,86.279 -23.513,151.15 -8.75,190.446l-11.325,-33.042c-4.992,-18.97 -11.121,-44.412 -14.904,-63.691c-3.784,-30.442 -10.229,-81.417 18.141,-153.625c0.175,-0.738 0.555,-1.421 0.809,-2.059c79.579,-191.2 337.671,-310.633 613.758,-284.004c-235.587,-21.741 -508.537,134.767 -595.983,341.804c-1.15,2.83 -1.484,3.488 -1.746,4.171" style="fill:#fff;fill-rule:nonzero;"/><path d="M26.223,326.827c-2.421,6.158 -2.421,6.158 -7.854,22.562c4.833,-13.9 11.029,-32.379 16.504,-45.912c8.866,-19.155 21.396,-44.521 31.6,-63.034l10.046,-16.204c101.929,-154.35 326.854,-192.033 559.691,-93.662c-244.025,-102.08 -529.037,-10.434 -609.987,196.25" style="fill:#fff;fill-rule:nonzero;"/><path d="M302.421,36.806l11.792,-4.696c94.633,-35.363 206.337,-1.654 322.825,97.571c-126.904,-107.271 -286.446,-129.396 -406.488,-56.167c36.621,-20.921 45.346,-25.875 71.871,-36.708" style="fill:#fff;fill-rule:nonzero;"/><path d="M512.669,0.285l8,0.425c42.02,3.716 78.433,43.516 117.841,128.733c-39.433,-84.496 -101.462,-131.567 -170.171,-129.158c13.275,-0.175 31.009,-0.542 44.33,-0" style="fill:#fff;fill-rule:nonzero;"/><path d="M660.516,30.173l7.8,2.95c-3.042,5.359 -15.596,44.263 -28.046,96.625c10.984,-47.458 14.854,-100.883 -7.175,-108.825c8.246,2.738 19.284,6.171 27.421,9.25" style="fill:#fff;fill-rule:nonzero;"/><path d="M785.769,98.364l10.916,8.4c-35.15,-27.421 -93.004,-18.538 -154.808,23.812c67.033,-46.279 102.042,-60.308 120.85,-48.521c6.962,4.909 16.258,11.163 23.042,16.309" style="fill:#fff;fill-rule:nonzero;"/><path d="M849.18,181.952c24.046,16.295 41.462,28.245 64.45,56.025c12.85,18.1 17.308,24.4 21.321,31.775c-5.125,-10.009 -11.042,-20.767 -18.288,-32.967c-2.762,-4.567 -5.762,-8.983 -8.896,-13.3c3.134,4.317 6.134,8.733 8.896,13.3c-5.937,-9.075 -10.383,-15.896 -14.067,-21.5c-2.654,-3.6 -5.462,-7.292 -7.866,-10.417c-15.254,-15.779 -29.659,-30.729 -59.004,-45.416c-11.384,-4.934 -26.688,-11.271 -38.45,-15.246c-32.259,-8.263 -37.263,-9.525 -68.405,-12.779c-30.395,-1.525 -40.825,-1.913 -62.795,-0.78c-0,0.092 -0,0.2 0.025,0.284c0.929,-0.046 1.9,-0.084 2.775,-0.109c-0.913,0.025 -1.846,0.109 -2.775,0.155c-47.742,0.566 0.091,0.895 0.116,1.37c47.6,3.113 112.217,7.717 181.334,48.638" style="fill:#fff;fill-rule:nonzero;"/></g></g></svg>